<svg width="234" height="229" viewBox="0 0 234 229" fill="none" xmlns="http://www.w3.org/2000/svg">
<path fill-rule="evenodd" clip-rule="evenodd" d="M65.2479 228.018H48.7984L76.5423 149.653C77.3062 147.495 76.5073 145.094 74.6028 143.824L2.23535 95.5702C-1.8804 92.8259 0.0623952 86.4102 5.00921 86.4102H95.3985C97.5166 86.4102 99.4049 85.0756 100.112 83.0789L128.345 3.33133C129.918 -1.11043 136.199 -1.11045 137.772 3.33131L166.005 83.0789C166.712 85.0756 168.6 86.4102 170.719 86.4102H233.059V116.123L191.514 143.824C189.61 145.094 188.811 147.495 189.575 149.653L217.169 227.595C215.842 227.872 214.467 228.018 213.059 228.018H200.869L135.832 184.652C134.153 183.532 131.964 183.532 130.285 184.652L65.2479 228.018Z" fill="#FCB9AC"/>
</svg>
