<svg width="53" height="53" viewBox="0 0 53 53" fill="none" xmlns="http://www.w3.org/2000/svg">
<path d="M52.523 26.5509C52.523 12.0886 40.8712 0.365234 26.5 0.365234C12.1223 0.368487 0.470459 12.0886 0.470459 26.5542C0.470459 39.621 9.98838 50.453 22.4274 52.4178L22.4274 34.1203L15.824 34.1203L15.824 26.5542L22.4339 26.5542L22.4339 20.7803C22.4339 14.2192 26.3211 10.5955 32.2641 10.5955C35.1136 10.5955 38.09 11.1062 38.09 11.1062L38.09 17.5469L34.8078 17.5469C31.5777 17.5469 30.5693 19.567 30.5693 21.6391L30.5693 26.5509L37.7842 26.5509L36.6327 34.1171L30.5661 34.1171L30.5661 52.4145C43.0051 50.4498 52.523 39.6177 52.523 26.5509Z" fill="black"/>
</svg>
