<svg width="53" height="53" viewBox="0 0 53 53" fill="none" xmlns="http://www.w3.org/2000/svg">
<path d="M26.5689 0.368164C19.5069 0.368164 18.6189 0.400693 15.8442 0.524302C13.0695 0.654417 11.1796 1.0903 9.52384 1.73437C7.78711 2.38761 6.21401 3.41229 4.91451 4.73678C3.59084 6.03694 2.56628 7.60985 1.91211 9.34611C1.26804 10.9986 0.828899 12.8917 0.702037 15.6567C0.578427 18.4379 0.545898 19.3227 0.545898 26.3944C0.545898 33.4597 0.578427 34.3445 0.702037 37.1192C0.832152 39.8906 1.26804 41.7805 1.91211 43.4363C2.57895 45.1473 3.46698 46.5981 4.91451 48.0456C6.35879 49.4931 7.80957 50.3844 9.52059 51.048C11.1796 51.6921 13.0662 52.1312 15.8377 52.2581C18.6156 52.3817 19.5004 52.4142 26.5689 52.4142C33.6374 52.4142 34.5189 52.3817 37.2969 52.2581C40.0651 52.1279 41.9615 51.6921 43.6172 51.048C45.3529 50.3944 46.9248 49.3698 48.2233 48.0456C49.6708 46.5981 50.5589 45.1473 51.2257 43.4363C51.8665 41.7805 52.3057 39.8906 52.4358 37.1192C52.5594 34.3445 52.5919 33.4597 52.5919 26.3912C52.5919 19.3227 52.5594 18.4379 52.4358 15.6599C52.3057 12.8917 51.8665 10.9986 51.2257 9.34611C50.5716 7.6098 49.5471 6.03687 48.2233 4.73678C46.9242 3.4118 45.351 2.38705 43.614 1.73437C41.955 1.0903 40.0619 0.651164 37.2937 0.524302C34.5157 0.400693 33.6342 0.368164 26.5624 0.368164L26.5722 0.368164L26.5689 0.368164ZM24.2366 5.05881L26.5722 5.05881C33.5203 5.05881 34.3433 5.08158 37.0855 5.20845C39.6227 5.3223 41.0019 5.74842 41.9192 6.10299C43.1326 6.57465 44.0011 7.14065 44.9119 8.05146C45.8227 8.96227 46.3854 9.82753 46.8571 11.0441C47.2149 11.9582 47.6378 13.3374 47.7517 15.8746C47.8785 18.6168 47.9045 19.4398 47.9045 26.3847C47.9045 33.3296 47.8785 34.1558 47.7517 36.898C47.6378 39.4352 47.2117 40.8112 46.8571 41.7285C46.4399 42.8584 45.774 43.8801 44.9086 44.7179C43.9978 45.6287 43.1326 46.1914 41.916 46.6631C41.0052 47.0209 39.626 47.4438 37.0855 47.5609C34.3433 47.6845 33.5203 47.7138 26.5722 47.7138C19.624 47.7138 18.7978 47.6845 16.0556 47.5609C13.5184 47.4438 12.1424 47.0209 11.2251 46.6631C10.0947 46.2465 9.0721 45.5818 8.23245 44.7179C7.36637 43.8788 6.69944 42.8561 6.28072 41.7252C5.92616 40.8112 5.50003 39.432 5.38618 36.8947C5.26257 34.1525 5.23655 33.3296 5.23655 26.3782C5.23655 19.43 5.26257 18.6103 5.38618 15.8681C5.50328 13.3309 5.92616 11.9517 6.28397 11.0343C6.75564 9.82103 7.32164 8.95251 8.23245 8.0417C9.14325 7.1309 10.0085 6.56815 11.2251 6.09648C12.1424 5.73866 13.5184 5.31579 16.0556 5.19869C18.4562 5.08809 19.3866 5.05556 24.2366 5.05231L24.2366 5.05881ZM40.462 9.37863C40.0519 9.37863 39.6458 9.45941 39.2669 9.61634C38.8881 9.77327 38.5438 10.0033 38.2538 10.2933C37.9639 10.5832 37.7338 10.9275 37.5769 11.3064C37.42 11.6852 37.3392 12.0913 37.3392 12.5014C37.3392 12.9115 37.42 13.3176 37.5769 13.6964C37.7338 14.0753 37.9639 14.4195 38.2538 14.7095C38.5438 14.9995 38.8881 15.2295 39.2669 15.3865C39.6458 15.5434 40.0519 15.6242 40.462 15.6242C41.2902 15.6242 42.0844 15.2952 42.6701 14.7095C43.2557 14.1239 43.5847 13.3296 43.5847 12.5014C43.5847 11.6732 43.2557 10.8789 42.6701 10.2933C42.0844 9.70764 41.2902 9.37863 40.462 9.37863ZM26.5722 13.0284C24.7996 13.0007 23.0392 13.326 21.3935 13.9852C19.7478 14.6444 18.2497 15.6244 16.9864 16.8681C15.7231 18.1119 14.7199 19.5945 14.0351 21.2297C13.3503 22.8649 12.9976 24.62 12.9976 26.3928C12.9976 28.1656 13.3503 29.9207 14.0351 31.5559C14.7199 33.1911 15.7231 34.6737 16.9864 35.9175C18.2497 37.1612 19.7478 38.1412 21.3935 38.8004C23.0392 39.4597 24.7996 39.7849 26.5722 39.7573C30.0805 39.7025 33.4267 38.2704 35.8883 35.77C38.35 33.2697 39.7297 29.9016 39.7297 26.3928C39.7297 22.884 38.35 19.5159 35.8883 17.0156C33.4267 14.5152 30.0805 13.0831 26.5722 13.0284ZM26.5722 17.7158C28.873 17.7158 31.0797 18.6298 32.7066 20.2567C34.3336 21.8837 35.2476 24.0903 35.2476 26.3912C35.2476 28.692 34.3336 30.8987 32.7066 32.5256C31.0797 34.1526 28.873 35.0666 26.5722 35.0666C24.2713 35.0666 22.0647 34.1526 20.4377 32.5256C18.8108 30.8987 17.8967 28.692 17.8967 26.3912C17.8967 24.0903 18.8108 21.8837 20.4377 20.2567C22.0647 18.6298 24.2713 17.7158 26.5722 17.7158Z" fill="black"/>
</svg>
