<svg width="53" height="44" viewBox="0 0 53 44" fill="none" xmlns="http://www.w3.org/2000/svg">
<path d="M16.7569 43.1617C36.3978 43.1617 47.142 26.8876 47.142 12.7994C47.142 12.344 47.142 11.8821 47.1225 11.4267C49.2143 9.9124 51.0197 8.03765 52.454 5.89026C50.5 6.75179 48.4294 7.31959 46.3093 7.57525C48.5425 6.24039 50.2151 4.14011 51.0162 1.66477C48.9181 2.90778 46.6216 3.78036 44.2275 4.24431C42.6179 2.53012 40.488 1.39452 38.1676 1.01341C35.8473 0.632302 33.466 1.02695 31.3927 2.13624C29.3194 3.24552 27.6697 5.00752 26.6992 7.14932C25.7287 9.29112 25.4915 11.6932 26.0244 13.9834C21.7785 13.7705 17.6248 12.6675 13.8327 10.746C10.0406 8.82442 6.69474 6.12721 4.01215 2.8293C2.6503 5.1814 2.23469 7.96365 2.84972 10.6111C3.46475 13.2585 5.06431 15.5725 7.32358 17.0834C5.63058 17.0259 3.97481 16.5713 2.4898 15.7562L2.4898 15.9026C2.49272 18.3666 3.34631 20.754 4.90628 22.6613C6.46625 24.5686 8.63692 25.8788 11.0514 26.3704C10.1349 26.6228 9.18822 26.7487 8.23763 26.7445C7.56749 26.7465 6.89869 26.6844 6.24037 26.559C6.92278 28.6801 8.25153 30.5346 10.0405 31.8628C11.8295 33.191 13.9892 33.9263 16.2169 33.9658C12.4324 36.9383 7.75751 38.5505 2.9452 38.5426C2.09725 38.5462 1.24988 38.4973 0.407959 38.3963C5.2922 41.5101 10.9645 43.1635 16.7569 43.1617Z" fill="black"/>
</svg>
