<svg width="53" height="38" viewBox="0 0 53 38" fill="none" xmlns="http://www.w3.org/2000/svg">
<path d="M26.5279 0.870605L26.8174 0.870605C29.4913 0.880364 43.0395 0.977951 46.6925 1.96032C47.7968 2.26013 48.8031 2.84452 49.6108 3.65509C50.4186 4.46567 50.9994 5.47403 51.2953 6.5794C51.6238 7.8155 51.8548 9.4517 52.0109 11.1399L52.0435 11.4782L52.115 12.324L52.1411 12.6623C52.3525 15.6354 52.3785 18.4199 52.3818 19.0282L52.3818 19.2721C52.3785 19.9032 52.3492 22.8763 52.115 25.9731L52.089 26.3146L52.0597 26.6529C51.8971 28.5136 51.6564 30.3612 51.2953 31.7209C51.0003 32.8267 50.4198 33.8356 49.6119 34.6463C48.804 35.457 47.7973 36.0411 46.6925 36.34C42.9191 37.3549 28.5772 37.4264 26.5897 37.4297L26.1278 37.4297C25.1227 37.4297 20.9655 37.4102 16.6066 37.2605L16.0536 37.241L15.7706 37.228L15.2144 37.2052L14.6582 37.1825C11.0475 37.0231 7.60917 36.7661 6.02502 36.3367C4.92063 36.0381 3.91411 35.4545 3.10629 34.6444C2.29847 33.8343 1.71771 32.8261 1.4222 31.7209C1.06113 30.3644 0.820415 28.5136 0.657771 26.6529L0.631748 26.3114L0.605725 25.9731C0.445188 23.7689 0.356229 21.5601 0.338989 19.3502L0.338989 18.9501C0.345495 18.2507 0.371518 15.8338 0.547173 13.1665L0.569944 12.8314L0.579702 12.6623L0.605725 12.324L0.677288 11.4782L0.709817 11.1399C0.865955 9.4517 1.09691 7.81224 1.42545 6.5794C1.72047 5.47358 2.301 4.46474 3.10886 3.65403C3.91671 2.84333 4.9235 2.25923 6.02827 1.96032C7.61242 1.53745 11.0507 1.27721 14.6614 1.11457L15.2144 1.0918L15.7739 1.07228L16.0536 1.06253L16.6099 1.03976C19.7057 0.940135 22.8027 0.88483 25.9001 0.873859L26.5279 0.873859L26.5279 0.870605ZM21.1574 11.3123L21.1574 26.9847L34.6796 19.1518L21.1574 11.3123Z" fill="black"/>
</svg>
